<svg xmlns="http://www.w3.org/2000/svg" width="640" height="245" viewBox="0 0 640 245">
  <g fill="#FFF">
    <path d="M209.48 122.57C209.48 121.94 209.3 120.77 208.22 120.77 207.14 120.77 206.87 121.13 206.15 122.57 204.17 126.44 202.91 128.96 198.59 130.58 196.7 131.3 193.46 131.57 190.31 131.57L182.03 131.57C180.59 131.57 180.32 131.3 180.32 128.42L180.32 104.57 190.31 105.02C193.55 105.2 196.88 105.38 197.78 105.38 199.04 105.38 201.2 105.38 201.2 102.77 201.2 101.24 201.11 99.62 198.59 99.62 197.6 99.62 194.54 99.89 193.46 99.98L180.32 100.88 180.32 78.83C180.32 76.31 181.13 75.95 183.11 75.95L191.93 75.95C195.53 75.95 199.04 76.85 200.57 80 201.74 82.43 201.92 87.02 204.08 87.02 206.15 87.02 206.15 79.37 206.15 76.85 206.15 73.97 206.06 71.63 203.36 71.63 201.83 71.63 199.49 71.9 198.32 71.9L171.41 71.9C169.88 71.9 167.9 71.99 167.9 73.7 167.9 74.33 168.17 74.78 169.16 74.78 170.42 74.78 171.95 75.41 171.95 79.46L171.95 128.42C171.95 132.47 170.33 133.19 169.07 133.19 168.26 133.19 167.9 133.55 167.9 134.27 167.9 135.98 169.97 136.07 171.32 136.07L201.47 136.07C206.42 136.07 206.87 134.72 208.22 129.77 209.3 125.99 209.48 123.92 209.48 122.57zM289.97 133.82C289.97 133.37 289.7 132.65 288.62 132.65 287.54 132.65 286.19 132.65 286.19 128.33L286.19 104.75C286.19 96.83 283.94 90.89 275.12 90.89 269.72 90.89 264.14 95.57 260.9 101.15 260.9 98.99 260.54 90.89 251.27 90.89 244.61 90.89 239.21 96.56 236.87 101.33 236.87 99.53 236.96 97.91 236.96 96.47 236.96 94.04 236.69 92.33 234.89 92.33L229.04 92.33C227.69 92.33 225.71 92.78 225.71 94.49 225.71 95.12 225.98 95.75 226.88 95.75 228.41 95.75 229.4 96.11 229.4 100.16L229.4 128.33C229.4 132.65 228.14 132.65 226.88 132.65 225.98 132.65 225.71 133.37 225.71 133.82 225.71 135.62 227.69 136.07 229.04 136.07L237.23 136.07C239.03 136.07 240.56 135.62 240.56 133.82 240.56 133.37 240.29 132.65 239.3 132.65 238.04 132.65 236.87 132.65 236.87 128.33L236.87 113.39C236.87 104.12 242.45 96.65 247.67 96.65 252.89 96.65 254.06 101.24 254.06 110.51L254.06 128.33C254.06 132.65 252.71 132.65 251.54 132.65 250.55 132.65 250.46 133.37 250.46 133.82 250.46 135.62 252.08 136.07 253.79 136.07L261.8 136.07C263.33 136.07 265.13 135.62 265.13 133.82 265.13 133.37 265.04 132.65 264.05 132.65 262.97 132.65 261.53 132.65 261.53 128.33L261.53 113.12C261.53 102.95 266.21 96.65 271.88 96.65 278.54 96.65 278.72 101.69 278.72 110.33L278.72 128.33C278.72 132.65 277.37 132.65 276.29 132.65 275.12 132.65 274.94 133.37 274.94 133.82 274.94 135.62 276.56 136.07 278.27 136.07L286.55 136.07C287.81 136.07 289.97 135.62 289.97 133.82zM371.99 133.82C371.99 133.37 371.72 132.65 370.64 132.65 369.56 132.65 368.21 132.65 368.21 128.33L368.21 104.75C368.21 96.83 365.96 90.89 357.14 90.89 351.74 90.89 346.16 95.57 342.92 101.15 342.92 98.99 342.56 90.89 333.29 90.89 326.63 90.89 321.23 96.56 318.89 101.33 318.89 99.53 318.98 97.91 318.98 96.47 318.98 94.04 318.71 92.33 316.91 92.33L311.06 92.33C309.71 92.33 307.73 92.78 307.73 94.49 307.73 95.12 308 95.75 308.9 95.75 310.43 95.75 311.42 96.11 311.42 100.16L311.42 128.33C311.42 132.65 310.16 132.65 308.9 132.65 308 132.65 307.73 133.37 307.73 133.82 307.73 135.62 309.71 136.07 311.06 136.07L319.25 136.07C321.05 136.07 322.58 135.62 322.58 133.82 322.58 133.37 322.31 132.65 321.32 132.65 320.06 132.65 318.89 132.65 318.89 128.33L318.89 113.39C318.89 104.12 324.47 96.65 329.69 96.65 334.91 96.65 336.08 101.24 336.08 110.51L336.08 128.33C336.08 132.65 334.73 132.65 333.56 132.65 332.57 132.65 332.48 133.37 332.48 133.82 332.48 135.62 334.1 136.07 335.81 136.07L343.82 136.07C345.35 136.07 347.15 135.62 347.15 133.82 347.15 133.37 347.06 132.65 346.07 132.65 344.99 132.65 343.55 132.65 343.55 128.33L343.55 113.12C343.55 102.95 348.23 96.65 353.9 96.65 360.56 96.65 360.74 101.69 360.74 110.33L360.74 128.33C360.74 132.65 359.39 132.65 358.31 132.65 357.14 132.65 356.96 133.37 356.96 133.82 356.96 135.62 358.58 136.07 360.29 136.07L368.57 136.07C369.83 136.07 371.99 135.62 371.99 133.82zM425.75 134.18C425.75 135.89 423.41 136.79 421.25 136.79 417.65 136.79 414.95 136.43 414.95 130.94L414.95 128.96C411.8 133.37 407.48 137.24 399.92 137.24 394.7 137.24 389.66 134.18 389.66 125.9 389.66 115.91 396.86 114.2 408.02 111.32 411.17 110.51 414.95 109.16 414.95 106.73L414.95 100.16C414.95 98.18 413.24 95.03 408.2 95.03 403.16 95.03 400.82 97.73 399.29 100.97 398.39 102.77 397.58 105.92 395.51 105.92 393.53 105.92 393.26 101.15 393.26 99.71 393.26 96.56 394.16 94.67 395.51 93.86 396.95 93.14 397.85 92.96 400.37 92.33 403.34 91.61 406.67 91.25 409.37 91.25 415.49 91.25 422.42 92.69 422.42 100.61L422.42 128.33C422.42 131.66 422.87 133.01 424.58 133.01 425.48 133.01 425.75 133.55 425.75 134.18zM414.95 123.47L414.95 112.13C413.96 112.94 410.99 114.11 408.29 114.83 401.63 116.72 397.4 118.16 397.4 125.09 397.4 127.61 398.21 132.02 403.34 132.02 409.1 132.02 413.15 127.7 414.95 123.47zM454.76 96.47C454.76 93.77 454.49 92.33 452.69 92.33L446.84 92.33C445.49 92.33 443.51 92.78 443.51 94.49 443.51 95.12 443.78 95.75 444.68 95.75 446.12 95.75 447.2 95.93 447.2 100.16L447.2 128.33C447.2 132.65 445.94 132.65 444.68 132.65 443.78 132.65 443.51 133.37 443.51 133.82 443.51 135.62 445.49 136.07 446.84 136.07L455.03 136.07C456.83 136.07 458.36 135.62 458.36 133.82 458.36 133.37 458.09 132.65 457.1 132.65 455.84 132.65 454.67 132.65 454.67 128.33L454.67 113.12C454.67 104.66 459.44 96.65 466.91 96.65 473.93 96.65 474.11 102.95 474.11 108.53L474.11 128.33C474.11 132.65 472.85 132.65 471.59 132.65 470.69 132.65 470.42 133.37 470.42 133.82 470.42 135.62 472.49 136.07 473.75 136.07L481.94 136.07C483.74 136.07 485.27 135.62 485.27 133.82 485.27 133.37 485 132.65 484.01 132.65 482.75 132.65 481.58 132.65 481.58 128.33L481.58 104.66C481.58 94.76 478.61 90.89 470.15 90.89 464.84 90.89 458.27 94.94 454.67 101.33 454.76 99.89 454.76 98.54 454.76 96.47zM543.89 134C543.89 133.19 543.8 132.65 542.18 132.65 541.19 132.65 540.2 131.84 540.2 129.05L540.2 96.74C540.2 94.58 540.11 92.33 538.22 92.33L532.46 92.33C531.02 92.33 528.95 92.78 528.95 94.49 528.95 94.94 529.13 95.75 530.21 95.75 531.92 95.75 532.73 96.65 532.73 100.25L532.73 117.89C532.73 123.2 527.6 131.3 521.21 131.3 514.19 131.3 514.19 125.9 514.19 118.97L514.19 96.74C514.19 94.31 514.19 92.33 512.3 92.33L506.45 92.33C505.19 92.33 503.03 92.78 503.03 94.49 503.03 95.12 503.39 95.75 504.38 95.75 505.46 95.75 506.72 95.84 506.72 100.25L506.72 122.84C506.72 131.75 509.78 136.97 517.16 136.97 522.2 136.97 527.6 135.17 532.73 126.8 532.73 128.69 532.55 130.67 532.55 132.29 532.55 134.45 532.91 136.07 534.53 136.07L540.38 136.07C541.91 136.07 543.89 135.8 543.89 134zM598.64 108.98C598.64 113.21 596.84 113.93 595.31 113.93L569.84 113.93C569.84 122.48 572.72 132.29 582.8 132.29 588.65 132.29 591.53 129.77 594.23 126.17 594.59 125.54 595.31 124.64 596.3 124.64 597.2 124.64 598.1 125.18 598.1 126.26 598.1 127.16 598.01 127.52 597.65 128.15 594.86 133.73 588.65 137.24 581.18 137.24 569.84 137.24 561.74 129.41 561.74 114.74 561.74 99.26 569.39 90.89 580.91 90.89 592.52 90.89 598.64 98.72 598.64 108.98zM590.36 106.55C590.36 101.33 588.11 94.76 580.64 94.76 571.64 94.76 569.93 104.21 569.93 108.26 569.93 109.97 570.2 109.97 571.64 109.97L587.39 109.97C590 109.97 590.36 109.34 590.36 106.55zM620.09 128.33C620.09 132.65 618.83 132.65 617.48 132.65 616.67 132.65 616.4 133.37 616.4 133.82 616.4 135.62 618.38 136.07 619.82 136.07L627.83 136.07C629.63 136.07 631.25 135.62 631.25 133.82 631.25 133.37 631.07 132.65 629.99 132.65 628.82 132.65 627.56 132.65 627.56 128.33L627.56 75.23C627.56 73.43 627.56 71 625.49 71L619.82 71C618.38 71 616.4 71.45 616.4 73.16 616.4 73.79 616.67 74.42 617.57 74.42 619.19 74.42 620.09 74.87 620.09 78.74L620.09 128.33zM169.66 176.16L186.81 176.16C193.67 176.16 203.19 178.61 203.19 189.18 203.19 202.55 191.85 205.42 186.11 205.42 181.84 205.42 178.62 205.07 176.66 204.23L176.66 220.19C176.66 223.34 177.85 223.83 178.76 223.83 179.46 223.83 179.81 224.11 179.81 224.67 179.81 226 178.2 226.07 177.08 226.07L169.8 226.07C168.68 226.07 167 226 167 224.67 167 224.11 167.28 223.83 167.91 223.83 168.96 223.83 170.15 223.34 170.15 220.19L170.15 182.04C170.15 178.89 168.96 178.4 167.91 178.4 167.28 178.4 167 178.12 167 177.56 167 176.23 168.68 176.16 169.66 176.16zM196.26 190.65C196.26 181.55 190.59 179.31 184.08 179.31 178.13 179.31 176.66 179.31 176.66 182.53L176.66 198.07C176.66 201.08 179.53 202.2 184.5 202.2 190.8 202.2 196.26 199.54 196.26 190.65zM238.49 224.6C238.49 225.93 236.67 226.63 234.99 226.63 232.19 226.63 230.09 226.35 230.09 222.08L230.09 220.54C227.64 223.97 224.28 226.98 218.4 226.98 214.34 226.98 210.42 224.6 210.42 218.16 210.42 210.39 216.02 209.06 224.7 206.82 227.15 206.19 230.09 205.14 230.09 203.25L230.09 198.14C230.09 196.6 228.76 194.15 224.84 194.15 220.92 194.15 219.1 196.25 217.91 198.77 217.21 200.17 216.58 202.62 214.97 202.62 213.43 202.62 213.22 198.91 213.22 197.79 213.22 195.34 213.92 193.87 214.97 193.24 216.09 192.68 216.79 192.54 218.75 192.05 221.06 191.49 223.65 191.21 225.75 191.21 230.51 191.21 235.9 192.33 235.9 198.49L235.9 220.05C235.9 222.64 236.25 223.69 237.58 223.69 238.28 223.69 238.49 224.11 238.49 224.6zM230.09 216.27L230.09 207.45C229.32 208.08 227.01 208.99 224.91 209.55 219.73 211.02 216.44 212.14 216.44 217.53 216.44 219.49 217.07 222.92 221.06 222.92 225.54 222.92 228.69 219.56 230.09 216.27zM269.87 213.47L269.87 202.9C269.87 196.39 265.67 194.22 261.61 194.22 257.34 194.22 252.65 197.3 252.65 208.43 252.65 221.45 258.18 223.13 261.61 223.13 265.6 223.13 269.87 219.56 269.87 213.47zM275.68 178.75L275.68 220.61C275.68 222.78 276.45 223.41 277.22 223.41 278.48 223.41 278.55 223.83 278.55 224.46 278.55 225.86 277.01 226.07 275.82 226.07L271.34 226.07C269.94 226.07 269.87 224.04 269.87 220.54 267.42 224.67 263.92 226.98 259.44 226.98 253.21 226.98 246.42 222.78 246.42 209.55 246.42 194.08 255.45 190.93 260.98 190.93 264.06 190.93 267.98 191.77 269.87 194.71L269.87 181.48C269.87 178.47 269.17 178.12 267.91 178.12 267.21 178.12 267 177.63 267 177.14 267 175.81 268.54 175.46 269.66 175.46L274.07 175.46C275.68 175.46 275.68 177.35 275.68 178.75zM295.79 182.88C295.79 180.85 293.97 179.1 291.87 179.1 289.91 179.1 288.09 180.85 288.09 182.88 288.09 184.84 289.91 186.66 291.87 186.66 293.97 186.66 295.79 184.84 295.79 182.88zM298.31 224.32C298.31 223.97 298.1 223.41 297.26 223.41 296.35 223.41 295.44 223.41 295.44 220.05L295.44 198.14C295.44 197.51 295.51 195.76 295.51 194.57 295.51 193.24 295.23 192.05 293.83 192.05L289.35 192.05C288.3 192.05 286.76 192.4 286.76 193.73 286.76 194.22 286.97 194.71 287.67 194.71 289.14 194.71 289.63 195.34 289.63 198.14L289.63 220.05C289.63 223.41 288.58 223.41 287.67 223.41 286.9 223.41 286.76 223.97 286.76 224.32 286.76 225.72 288.3 226.07 289.35 226.07L295.65 226.07C297.05 226.07 298.31 225.72 298.31 224.32zM309.18 220.05C309.18 223.41 308.2 223.41 307.15 223.41 306.52 223.41 306.31 223.97 306.31 224.32 306.31 225.72 307.85 226.07 308.97 226.07L315.2 226.07C316.6 226.07 317.86 225.72 317.86 224.32 317.86 223.97 317.72 223.41 316.88 223.41 315.97 223.41 314.99 223.41 314.99 220.05L314.99 178.75C314.99 177.35 314.99 175.46 313.38 175.46L308.97 175.46C307.85 175.46 306.31 175.81 306.31 177.14 306.31 177.63 306.52 178.12 307.22 178.12 308.48 178.12 309.18 178.47 309.18 181.48L309.18 220.05zM328.94 220.05C328.94 223.41 327.96 223.41 326.91 223.41 326.28 223.41 326.07 223.97 326.07 224.32 326.07 225.72 327.61 226.07 328.73 226.07L334.96 226.07C336.36 226.07 337.62 225.72 337.62 224.32 337.62 223.97 337.48 223.41 336.64 223.41 335.73 223.41 334.75 223.41 334.75 220.05L334.75 178.75C334.75 177.35 334.75 175.46 333.14 175.46L328.73 175.46C327.61 175.46 326.07 175.81 326.07 177.14 326.07 177.63 326.28 178.12 326.98 178.12 328.24 178.12 328.94 178.47 328.94 181.48L328.94 220.05zM373.83 224.6C373.83 225.93 372.01 226.63 370.33 226.63 367.53 226.63 365.43 226.35 365.43 222.08L365.43 220.54C362.98 223.97 359.62 226.98 353.74 226.98 349.68 226.98 345.76 224.6 345.76 218.16 345.76 210.39 351.36 209.06 360.04 206.82 362.49 206.19 365.43 205.14 365.43 203.25L365.43 198.14C365.43 196.6 364.1 194.15 360.18 194.15 356.26 194.15 354.44 196.25 353.25 198.77 352.55 200.17 351.92 202.62 350.31 202.62 348.77 202.62 348.56 198.91 348.56 197.79 348.56 195.34 349.26 193.87 350.31 193.24 351.43 192.68 352.13 192.54 354.09 192.05 356.4 191.49 358.99 191.21 361.09 191.21 365.85 191.21 371.24 192.33 371.24 198.49L371.24 220.05C371.24 222.64 371.59 223.69 372.92 223.69 373.62 223.69 373.83 224.11 373.83 224.6zM365.43 216.27L365.43 207.45C364.66 208.08 362.35 208.99 360.25 209.55 355.07 211.02 351.78 212.14 351.78 217.53 351.78 219.49 352.41 222.92 356.4 222.92 360.88 222.92 364.03 219.56 365.43 216.27zM438.97 182.04C438.97 178.89 440.09 178.4 441.14 178.4 441.77 178.4 442.05 178.12 442.05 177.56 442.05 176.23 440.51 176.16 439.39 176.16L432.04 176.16C430.92 176.16 429.38 176.23 429.38 177.56 429.38 178.12 429.66 178.4 430.29 178.4 431.34 178.4 432.46 178.89 432.46 182.04L432.46 198.21 410.69 198.21 410.69 182.04C410.69 178.89 411.88 178.4 412.79 178.4 413.49 178.4 413.84 178.12 413.84 177.56 413.84 176.23 412.23 176.16 411.11 176.16L403.83 176.16C402.71 176.16 401.03 176.23 401.03 177.56 401.03 178.12 401.31 178.4 401.94 178.4 402.99 178.4 404.18 178.89 404.18 182.04L404.18 220.19C404.18 223.34 402.99 223.83 401.94 223.83 401.31 223.83 401.03 224.11 401.03 224.67 401.03 226 402.71 226.07 403.83 226.07L411.11 226.07C412.23 226.07 413.84 226 413.84 224.67 413.84 224.11 413.49 223.83 412.79 223.83 411.88 223.83 410.69 223.34 410.69 220.19L410.69 201.36 432.46 201.36 432.46 220.19C432.46 223.34 431.34 223.83 430.29 223.83 429.66 223.83 429.38 224.11 429.38 224.67 429.38 226 430.92 226.07 432.04 226.07L439.39 226.07C440.51 226.07 442.05 226 442.05 224.67 442.05 224.11 441.77 223.83 441.14 223.83 440.09 223.83 438.97 223.34 438.97 220.19L438.97 182.04zM481.83 208.99C481.83 220.47 474.13 226.98 466.15 226.98 455.93 226.98 450.12 219.63 450.12 208.78 450.12 196.46 457.82 190.93 465.87 190.93 476.02 190.93 481.83 197.44 481.83 208.99zM475.6 210.04C475.6 199.96 472.03 193.94 465.87 193.94 459.71 193.94 456.35 198.14 456.35 207.73 456.35 217.25 459.85 223.97 466.15 223.97 472.17 223.97 475.6 219.14 475.6 210.04zM492.63 220.05C492.63 223.41 491.65 223.41 490.6 223.41 489.97 223.41 489.76 223.97 489.76 224.32 489.76 225.72 491.3 226.07 492.42 226.07L498.65 226.07C500.05 226.07 501.31 225.72 501.31 224.32 501.31 223.97 501.17 223.41 500.33 223.41 499.42 223.41 498.44 223.41 498.44 220.05L498.44 178.75C498.44 177.35 498.44 175.46 496.83 175.46L492.42 175.46C491.3 175.46 489.76 175.81 489.76 177.14 489.76 177.63 489.97 178.12 490.67 178.12 491.93 178.12 492.63 178.47 492.63 181.48L492.63 220.05zM540.74 192.82C540.74 195.13 539.06 194.99 535.84 195.62L534.44 195.9C536.05 197.72 536.89 200.66 536.89 203.67 536.89 211.51 530.38 216.2 523.52 216.2L522.4 216.2C519.74 216.2 515.47 217.6 515.47 220.05 515.47 222.5 518.97 222.57 526.39 222.71 535.35 222.92 540.6 224.25 540.6 231.88 540.6 239.65 531.78 244.69 523.1 244.69 519.67 244.69 507.84 243.5 507.84 234.4 507.84 230.69 510.78 227.61 513.02 226.28 511.83 225.65 510.29 224.39 510.29 221.87 510.29 217.53 516.17 215.64 517.71 215.29 512.74 213.4 509.94 208.99 509.94 203.53 509.94 195.41 516.45 190.93 523.31 190.93 528.56 190.93 530.31 191.98 532.55 193.87 534.09 193.17 536.82 190.65 538.5 190.65 539.2 190.65 540.74 190.65 540.74 192.82zM530.52 204.02C530.52 197.37 528.56 193.94 523.31 193.94 518.13 193.94 516.31 198.7 516.31 203.67 516.31 208.64 518.06 213.19 523.31 213.19 528.49 213.19 530.52 210.39 530.52 204.02zM535.77 233.35C535.77 228.45 530.03 228.8 525.27 228.52 523.17 228.38 517.36 228.17 514.98 227.19 514.28 227.75 512.81 229.22 512.81 233.56 512.81 238.46 516.73 241.47 524.36 241.47 531.29 241.47 535.77 238.32 535.77 233.35zM579.26 224.46C579.26 223.83 579.19 223.41 577.93 223.41 577.16 223.41 576.39 222.78 576.39 220.61L576.39 195.48C576.39 193.8 576.32 192.05 574.85 192.05L570.37 192.05C569.25 192.05 567.64 192.4 567.64 193.73 567.64 194.08 567.78 194.71 568.62 194.71 569.95 194.71 570.58 195.41 570.58 198.21L570.58 211.93C570.58 216.06 566.59 222.36 561.62 222.36 556.16 222.36 556.16 218.16 556.16 212.77L556.16 195.48C556.16 193.59 556.16 192.05 554.69 192.05L550.14 192.05C549.16 192.05 547.48 192.4 547.48 193.73 547.48 194.22 547.76 194.71 548.53 194.71 549.37 194.71 550.35 194.78 550.35 198.21L550.35 215.78C550.35 222.71 552.73 226.77 558.47 226.77 562.39 226.77 566.59 225.37 570.58 218.86 570.58 220.33 570.44 221.87 570.44 223.13 570.44 224.81 570.72 226.07 571.98 226.07L576.53 226.07C577.72 226.07 579.26 225.86 579.26 224.46zM598.67 224.32C598.67 223.97 598.46 223.41 597.62 223.41 596.71 223.41 595.8 223.41 595.8 220.05L595.8 198.42C595.8 197.72 595.87 196.18 595.87 195.13 595.87 193.66 595.59 192.05 594.19 192.05L589.71 192.05C588.66 192.05 587.12 192.4 587.12 193.73 587.12 194.22 587.26 194.64 588.03 194.64 588.94 194.64 589.99 195.55 589.99 198.14L589.99 220.05C589.99 223.41 588.94 223.41 588.03 223.41 587.26 223.41 587.12 223.97 587.12 224.32 587.12 225.72 588.66 226.07 589.71 226.07L596.01 226.07C597.41 226.07 598.67 225.72 598.67 224.32zM589.71 187.36L597.83 182.81C599.86 181.69 600.07 180.15 600.07 179.03 600.07 177.35 598.32 176.37 596.71 176.37 595.45 176.37 594.61 176.72 593.35 178.54L588.24 185.89 589.71 187.36zM615.42 195.27C615.42 193.17 615.21 192.05 613.81 192.05L609.26 192.05C608.21 192.05 606.67 192.4 606.67 193.73 606.67 194.22 606.88 194.71 607.58 194.71 608.7 194.71 609.54 194.85 609.54 198.14L609.54 220.05C609.54 223.41 608.56 223.41 607.58 223.41 606.88 223.41 606.67 223.97 606.67 224.32 606.67 225.72 608.21 226.07 609.26 226.07L615.63 226.07C617.03 226.07 618.22 225.72 618.22 224.32 618.22 223.97 618.01 223.41 617.24 223.41 616.26 223.41 615.35 223.41 615.35 220.05L615.35 208.22C615.35 201.64 619.06 195.41 624.87 195.41 630.33 195.41 630.47 200.31 630.47 204.65L630.47 220.05C630.47 223.41 629.49 223.41 628.51 223.41 627.81 223.41 627.6 223.97 627.6 224.32 627.6 225.72 629.21 226.07 630.19 226.07L636.56 226.07C637.96 226.07 639.15 225.72 639.15 224.32 639.15 223.97 638.94 223.41 638.17 223.41 637.19 223.41 636.28 223.41 636.28 220.05L636.28 201.64C636.28 193.94 633.97 190.93 627.39 190.93 623.26 190.93 618.15 194.08 615.35 199.05 615.42 197.93 615.42 196.88 615.42 195.27zM136.586 60.9C136.593958 54.2715279 132.9379 48.1814316 127.084 45.072 119.28 40.915 109.444 43.15 104.2 50.272L94.882 62.939C94.1649715 63.9361134 92.9917265 64.502222 91.765 64.443 90.5407488 64.4061056 89.4171314 63.7559859 88.775 62.713L66.566 27.257C57.184 12.284 40.044 3.643 22.5 4.894 21.89 4.938 19.583 5.262 19.583 5.262 17.7749093 2.01304625 14.3481839-.000963438 10.63 2.66453526e-15 9.826 2.66453526e-15 9.016.096 8.207.288 3.19 1.506-.157 6.287.42 11.368L23.328 236.661C23.5214083 238.557544 25.1186201 240.000089 27.025 240L95.775 240C96.9617281 241.192065 98.8013376 241.438024 100.259547 240.599591 101.717756 239.761159 102.430672 238.047563 101.997473 236.422238 101.564275 234.796913 100.093064 233.665454 98.411 233.664L85.524 220.719C84.8263277 220.017971 83.8780344 219.623898 82.889 219.624L74.337 219.624 135.3 67.553C136.149581 65.4374531 136.586111 63.1787646 136.586 60.899L136.586 60.9zM65.585 221.477C65.4090815 221.916857 65.3187972 222.386268 65.319 222.86 65.3192652 224.325544 65.7110255 225.270618 66.4080983 225.967316 67.105171 226.664014 68.0504555 227.055265 69.036 227.055L81.344 227.055 86.832 232.569 30.385 232.569 7.81 10.575C7.65259324 9.16354747 8.56532055 7.8539078 9.944 7.513 10.7354145 7.32208938 11.5706978 7.47924443 12.2386155 7.94472231 12.9065333 8.41020019 13.3431318 9.13943102 13.438 9.948L17.808 49.11 37.173 222.6C37.2395501 223.739781 37.826634 224.785616 38.765 225.436 39.6584804 226.054684 40.7776405 226.252201 41.8289252 225.976741 42.8802098 225.701281 43.7587116 224.980332 44.234 224.003L125.564 67.64C126.553083 65.7240051 126.702646 63.4834579 125.977 61.453 125.244875 59.4235096 123.703754 57.7886033 121.721 56.938 120.51105 56.419218 119.187961 56.2205135 117.879 56.361 115.492271 56.5966402 113.351627 57.9309376 112.089 59.97L103.405 73.905C100.252748 78.9914178 94.7049356 82.0977999 88.721 82.127 82.6470707 82.1427648 77.1138548 79.1270811 73.91 74.13L50.932 38.495C47.6253565 33.3428539 41.9199575 30.2322918 35.798 30.244 35.117 30.244 34.495 30.277 33.899 30.344 30.1032707 30.733936 26.5311723 32.3255448 23.703 34.887L21.206 12.515 21.612 12.435C36.925 10.791 52.085 18.145 60.265 31.2L82.474 66.654C84.4314275 69.7779205 87.8084575 71.7301719 91.4924143 71.8675194 95.1763711 72.0048669 98.6893941 70.3094947 100.874 67.34L110.19 54.674C113.26 50.504 119.02 49.194 123.589 51.629 128.321415 54.1425155 130.39579 59.8208431 128.398 64.793L65.585 221.477zM72.202 154.123L66.529 165.029 54.38 57.557 62.752 70.542 72.202 154.124 72.202 154.123zM71.632 82.905C73.8069215 84.9335953 76.3308985 86.5519897 79.082 87.682L84.025 131.394 78.348 142.308 71.632 82.905zM60.384 176.845L54.711 187.749 37.765 37.86C40.588 38.39 43.089 40.05 44.684 42.522L45.306 43.488 60.384 176.845zM48.565 199.566L43.228 209.826 25.23 48.584 25.227 48.26C25.216602 44.5122298 27.1972923 41.0408816 30.429 39.143L48.565 199.567 48.565 199.566zM86.768 89.486C87.433 89.533 88.102 89.564 88.778 89.558 90.4060455 89.5454742 92.0290155 89.3746705 93.624 89.048L95.843 108.672 90.17 119.578 86.768 89.485 86.768 89.486zM100.803 86.376C104.445346 84.3239737 107.51125 81.3863605 109.717 77.835L118.4 63.899C118.467 63.792 118.566 63.761 118.672 63.75 118.715032 63.7453257 118.758531 63.7522303 118.798 63.77 118.832 63.785 118.932 63.828 118.98 63.962 119.012489 64.0457911 119.007016 64.1395574 118.965 64.219L101.988 96.857 100.803 86.377 100.803 86.376z"/>
  </g>
</svg>
