<svg width="640" height="245" xmlns="http://www.w3.org/2000/svg"><g fill-rule="evenodd"><path d="M209.48 122.57c0-.63-.18-1.8-1.26-1.8s-1.35.36-2.07 1.8c-1.98 3.87-3.24 6.39-7.56 8.01-1.89.72-5.13.99-8.28.99h-8.28c-1.44 0-1.71-.27-1.71-3.15v-23.85l9.99.45c3.24.18 6.57.36 7.47.36 1.26 0 3.42 0 3.42-2.61 0-1.53-.09-3.15-2.61-3.15-.99 0-4.05.27-5.13.36l-13.14.9V78.83c0-2.52.81-2.88 2.79-2.88h8.82c3.6 0 7.11.9 8.64 4.05 1.17 2.43 1.35 7.02 3.51 7.02 2.07 0 2.07-7.65 2.07-10.17 0-2.88-.09-5.22-2.79-5.22-1.53 0-3.87.27-5.04.27h-26.91c-1.53 0-3.51.09-3.51 1.8 0 .63.27 1.08 1.26 1.08 1.26 0 2.79.63 2.79 4.68v48.96c0 4.05-1.62 4.77-2.88 4.77-.81 0-1.17.36-1.17 1.08 0 1.71 2.07 1.8 3.42 1.8h30.15c4.95 0 5.4-1.35 6.75-6.3 1.08-3.78 1.26-5.85 1.26-7.2zm80.49 11.25c0-.45-.27-1.17-1.35-1.17s-2.43 0-2.43-4.32v-23.58c0-7.92-2.25-13.86-11.07-13.86-5.4 0-10.98 4.68-14.22 10.26 0-2.16-.36-10.26-9.63-10.26-6.66 0-12.06 5.67-14.4 10.44 0-1.8.09-3.42.09-4.86 0-2.43-.27-4.14-2.07-4.14h-5.85c-1.35 0-3.33.45-3.33 2.16 0 .63.27 1.26 1.17 1.26 1.53 0 2.52.36 2.52 4.41v28.17c0 4.32-1.26 4.32-2.52 4.32-.9 0-1.17.72-1.17 1.17 0 1.8 1.98 2.25 3.33 2.25h8.19c1.8 0 3.33-.45 3.33-2.25 0-.45-.27-1.17-1.26-1.17-1.26 0-2.43 0-2.43-4.32v-14.94c0-9.27 5.58-16.74 10.8-16.74 5.22 0 6.39 4.59 6.39 13.86v17.82c0 4.32-1.35 4.32-2.52 4.32-.99 0-1.08.72-1.08 1.17 0 1.8 1.62 2.25 3.33 2.25h8.01c1.53 0 3.33-.45 3.33-2.25 0-.45-.09-1.17-1.08-1.17-1.08 0-2.52 0-2.52-4.32v-15.21c0-10.17 4.68-16.47 10.35-16.47 6.66 0 6.84 5.04 6.84 13.68v18c0 4.32-1.35 4.32-2.43 4.32-1.17 0-1.35.72-1.35 1.17 0 1.8 1.62 2.25 3.33 2.25h8.28c1.26 0 3.42-.45 3.42-2.25zm82.02 0c0-.45-.27-1.17-1.35-1.17s-2.43 0-2.43-4.32v-23.58c0-7.92-2.25-13.86-11.07-13.86-5.4 0-10.98 4.68-14.22 10.26 0-2.16-.36-10.26-9.63-10.26-6.66 0-12.06 5.67-14.4 10.44 0-1.8.09-3.42.09-4.86 0-2.43-.27-4.14-2.07-4.14h-5.85c-1.35 0-3.33.45-3.33 2.16 0 .63.27 1.26 1.17 1.26 1.53 0 2.52.36 2.52 4.41v28.17c0 4.32-1.26 4.32-2.52 4.32-.9 0-1.17.72-1.17 1.17 0 1.8 1.98 2.25 3.33 2.25h8.19c1.8 0 3.33-.45 3.33-2.25 0-.45-.27-1.17-1.26-1.17-1.26 0-2.43 0-2.43-4.32v-14.94c0-9.27 5.58-16.74 10.8-16.74 5.22 0 6.39 4.59 6.39 13.86v17.82c0 4.32-1.35 4.32-2.52 4.32-.99 0-1.08.72-1.08 1.17 0 1.8 1.62 2.25 3.33 2.25h8.01c1.53 0 3.33-.45 3.33-2.25 0-.45-.09-1.17-1.08-1.17-1.08 0-2.52 0-2.52-4.32v-15.21c0-10.17 4.68-16.47 10.35-16.47 6.66 0 6.84 5.04 6.84 13.68v18c0 4.32-1.35 4.32-2.43 4.32-1.17 0-1.35.72-1.35 1.17 0 1.8 1.62 2.25 3.33 2.25h8.28c1.26 0 3.42-.45 3.42-2.25zm53.76.36c0 1.71-2.34 2.61-4.5 2.61-3.6 0-6.3-.36-6.3-5.85v-1.98c-3.15 4.41-7.47 8.28-15.03 8.28-5.22 0-10.26-3.06-10.26-11.34 0-9.99 7.2-11.7 18.36-14.58 3.15-.81 6.93-2.16 6.93-4.59v-6.57c0-1.98-1.71-5.13-6.75-5.13s-7.38 2.7-8.91 5.94c-.9 1.8-1.71 4.95-3.78 4.95-1.98 0-2.25-4.77-2.25-6.21 0-3.15.9-5.04 2.25-5.85 1.44-.72 2.34-.9 4.86-1.53 2.97-.72 6.3-1.08 9-1.08 6.12 0 13.05 1.44 13.05 9.36v27.72c0 3.33.45 4.68 2.16 4.68.9 0 1.17.54 1.17 1.17zm-10.8-10.71v-11.34c-.99.81-3.96 1.98-6.66 2.7-6.66 1.89-10.89 3.33-10.89 10.26 0 2.52.81 6.93 5.94 6.93 5.76 0 9.81-4.32 11.61-8.55zm39.81-27c0-2.7-.27-4.14-2.07-4.14h-5.85c-1.35 0-3.33.45-3.33 2.16 0 .63.27 1.26 1.17 1.26 1.44 0 2.52.18 2.52 4.41v28.17c0 4.32-1.26 4.32-2.52 4.32-.9 0-1.17.72-1.17 1.17 0 1.8 1.98 2.25 3.33 2.25h8.19c1.8 0 3.33-.45 3.33-2.25 0-.45-.27-1.17-1.26-1.17-1.26 0-2.43 0-2.43-4.32v-15.21c0-8.46 4.77-16.47 12.24-16.47 7.02 0 7.2 6.3 7.2 11.88v19.8c0 4.32-1.26 4.32-2.52 4.32-.9 0-1.17.72-1.17 1.17 0 1.8 2.07 2.25 3.33 2.25h8.19c1.8 0 3.33-.45 3.33-2.25 0-.45-.27-1.17-1.26-1.17-1.26 0-2.43 0-2.43-4.32v-23.67c0-9.9-2.97-13.77-11.43-13.77-5.31 0-11.88 4.05-15.48 10.44.09-1.44.09-2.79.09-4.86zM543.89 134c0-.81-.09-1.35-1.71-1.35-.99 0-1.98-.81-1.98-3.6V96.74c0-2.16-.09-4.41-1.98-4.41h-5.76c-1.44 0-3.51.45-3.51 2.16 0 .45.18 1.26 1.26 1.26 1.71 0 2.52.9 2.52 4.5v17.64c0 5.31-5.13 13.41-11.52 13.41-7.02 0-7.02-5.4-7.02-12.33V96.74c0-2.43 0-4.41-1.89-4.41h-5.85c-1.26 0-3.42.45-3.42 2.16 0 .63.36 1.26 1.35 1.26 1.08 0 2.34.09 2.34 4.5v22.59c0 8.91 3.06 14.13 10.44 14.13 5.04 0 10.44-1.8 15.57-10.17 0 1.89-.18 3.87-.18 5.49 0 2.16.36 3.78 1.98 3.78h5.85c1.53 0 3.51-.27 3.51-2.07zm54.75-25.02c0 4.23-1.8 4.95-3.33 4.95h-25.47c0 8.55 2.88 18.36 12.96 18.36 5.85 0 8.73-2.52 11.43-6.12.36-.63 1.08-1.53 2.07-1.53.9 0 1.8.54 1.8 1.62 0 .9-.09 1.26-.45 1.89-2.79 5.58-9 9.09-16.47 9.09-11.34 0-19.44-7.83-19.44-22.5 0-15.48 7.65-23.85 19.17-23.85 11.61 0 17.73 7.83 17.73 18.09zm-8.28-2.43c0-5.22-2.25-11.79-9.72-11.79-9 0-10.71 9.45-10.71 13.5 0 1.71.27 1.71 1.71 1.71h15.75c2.61 0 2.97-.63 2.97-3.42zm29.73 21.78c0 4.32-1.26 4.32-2.61 4.32-.81 0-1.08.72-1.08 1.17 0 1.8 1.98 2.25 3.42 2.25h8.01c1.8 0 3.42-.45 3.42-2.25 0-.45-.18-1.17-1.26-1.17-1.17 0-2.43 0-2.43-4.32v-53.1c0-1.8 0-4.23-2.07-4.23h-5.67c-1.44 0-3.42.45-3.42 2.16 0 .63.27 1.26 1.17 1.26 1.62 0 2.52.45 2.52 4.32v49.59zm-450.43 47.83h17.15c6.86 0 16.38 2.45 16.38 13.02 0 13.37-11.34 16.24-17.08 16.24-4.27 0-7.49-.35-9.45-1.19v15.96c0 3.15 1.19 3.64 2.1 3.64.7 0 1.05.28 1.05.84 0 1.33-1.61 1.4-2.73 1.4h-7.28c-1.12 0-2.8-.07-2.8-1.4 0-.56.28-.84.91-.84 1.05 0 2.24-.49 2.24-3.64v-38.15c0-3.15-1.19-3.64-2.24-3.64-.63 0-.91-.28-.91-.84 0-1.33 1.68-1.4 2.66-1.4zm26.6 14.49c0-9.1-5.67-11.34-12.18-11.34-5.95 0-7.42 0-7.42 3.22v15.54c0 3.01 2.87 4.13 7.84 4.13 6.3 0 11.76-2.66 11.76-11.55zm42.23 33.95c0 1.33-1.82 2.03-3.5 2.03-2.8 0-4.9-.28-4.9-4.55v-1.54c-2.45 3.43-5.81 6.44-11.69 6.44-4.06 0-7.98-2.38-7.98-8.82 0-7.77 5.6-9.1 14.28-11.34 2.45-.63 5.39-1.68 5.39-3.57v-5.11c0-1.54-1.33-3.99-5.25-3.99s-5.74 2.1-6.93 4.62c-.7 1.4-1.33 3.85-2.94 3.85-1.54 0-1.75-3.71-1.75-4.83 0-2.45.7-3.92 1.75-4.55 1.12-.56 1.82-.7 3.78-1.19 2.31-.56 4.9-.84 7-.84 4.76 0 10.15 1.12 10.15 7.28v21.56c0 2.59.35 3.64 1.68 3.64.7 0 .91.42.91.91zm-8.4-8.33v-8.82c-.77.63-3.08 1.54-5.18 2.1-5.18 1.47-8.47 2.59-8.47 7.98 0 1.96.63 5.39 4.62 5.39 4.48 0 7.63-3.36 9.03-6.65zm39.78-2.8V202.9c0-6.51-4.2-8.68-8.26-8.68-4.27 0-8.96 3.08-8.96 14.21 0 13.02 5.53 14.7 8.96 14.7 3.99 0 8.26-3.57 8.26-9.66zm5.81-34.72v41.86c0 2.17.77 2.8 1.54 2.8 1.26 0 1.33.42 1.33 1.05 0 1.4-1.54 1.61-2.73 1.61h-4.48c-1.4 0-1.47-2.03-1.47-5.53-2.45 4.13-5.95 6.44-10.43 6.44-6.23 0-13.02-4.2-13.02-17.43 0-15.47 9.03-18.62 14.56-18.62 3.08 0 7 .84 8.89 3.78v-13.23c0-3.01-.7-3.36-1.96-3.36-.7 0-.91-.49-.91-.98 0-1.33 1.54-1.68 2.66-1.68h4.41c1.61 0 1.61 1.89 1.61 3.29zm20.11 4.13c0-2.03-1.82-3.78-3.92-3.78-1.96 0-3.78 1.75-3.78 3.78 0 1.96 1.82 3.78 3.78 3.78 2.1 0 3.92-1.82 3.92-3.78zm2.52 41.44c0-.35-.21-.91-1.05-.91-.91 0-1.82 0-1.82-3.36v-21.91c0-.63.07-2.38.07-3.57 0-1.33-.28-2.52-1.68-2.52h-4.48c-1.05 0-2.59.35-2.59 1.68 0 .49.21.98.91.98 1.47 0 1.96.63 1.96 3.43v21.91c0 3.36-1.05 3.36-1.96 3.36-.77 0-.91.56-.91.91 0 1.4 1.54 1.75 2.59 1.75h6.3c1.4 0 2.66-.35 2.66-1.75zm10.87-4.27c0 3.36-.98 3.36-2.03 3.36-.63 0-.84.56-.84.91 0 1.4 1.54 1.75 2.66 1.75h6.23c1.4 0 2.66-.35 2.66-1.75 0-.35-.14-.91-.98-.91-.91 0-1.89 0-1.89-3.36v-41.3c0-1.4 0-3.29-1.61-3.29h-4.41c-1.12 0-2.66.35-2.66 1.68 0 .49.21.98.91.98 1.26 0 1.96.35 1.96 3.36v38.57zm19.76 0c0 3.36-.98 3.36-2.03 3.36-.63 0-.84.56-.84.91 0 1.4 1.54 1.75 2.66 1.75h6.23c1.4 0 2.66-.35 2.66-1.75 0-.35-.14-.91-.98-.91-.91 0-1.89 0-1.89-3.36v-41.3c0-1.4 0-3.29-1.61-3.29h-4.41c-1.12 0-2.66.35-2.66 1.68 0 .49.21.98.91.98 1.26 0 1.96.35 1.96 3.36v38.57zm44.89 4.55c0 1.33-1.82 2.03-3.5 2.03-2.8 0-4.9-.28-4.9-4.55v-1.54c-2.45 3.43-5.81 6.44-11.69 6.44-4.06 0-7.98-2.38-7.98-8.82 0-7.77 5.6-9.1 14.28-11.34 2.45-.63 5.39-1.68 5.39-3.57v-5.11c0-1.54-1.33-3.99-5.25-3.99s-5.74 2.1-6.93 4.62c-.7 1.4-1.33 3.85-2.94 3.85-1.54 0-1.75-3.71-1.75-4.83 0-2.45.7-3.92 1.75-4.55 1.12-.56 1.82-.7 3.78-1.19 2.31-.56 4.9-.84 7-.84 4.76 0 10.15 1.12 10.15 7.28v21.56c0 2.59.35 3.64 1.68 3.64.7 0 .91.42.91.91zm-8.4-8.33v-8.82c-.77.63-3.08 1.54-5.18 2.1-5.18 1.47-8.47 2.59-8.47 7.98 0 1.96.63 5.39 4.62 5.39 4.48 0 7.63-3.36 9.03-6.65zm73.54-34.23c0-3.15 1.12-3.64 2.17-3.64.63 0 .91-.28.91-.84 0-1.33-1.54-1.4-2.66-1.4h-7.35c-1.12 0-2.66.07-2.66 1.4 0 .56.28.84.91.84 1.05 0 2.17.49 2.17 3.64v16.17h-21.77v-16.17c0-3.15 1.19-3.64 2.1-3.64.7 0 1.05-.28 1.05-.84 0-1.33-1.61-1.4-2.73-1.4h-7.28c-1.12 0-2.8.07-2.8 1.4 0 .56.28.84.91.84 1.05 0 2.24.49 2.24 3.64v38.15c0 3.15-1.19 3.64-2.24 3.64-.63 0-.91.28-.91.84 0 1.33 1.68 1.4 2.8 1.4h7.28c1.12 0 2.73-.07 2.73-1.4 0-.56-.35-.84-1.05-.84-.91 0-2.1-.49-2.1-3.64v-18.83h21.77v18.83c0 3.15-1.12 3.64-2.17 3.64-.63 0-.91.28-.91.84 0 1.33 1.54 1.4 2.66 1.4h7.35c1.12 0 2.66-.07 2.66-1.4 0-.56-.28-.84-.91-.84-1.05 0-2.17-.49-2.17-3.64v-38.15zm42.86 26.95c0 11.48-7.7 17.99-15.68 17.99-10.22 0-16.03-7.35-16.03-18.2 0-12.32 7.7-17.85 15.75-17.85 10.15 0 15.96 6.51 15.96 18.06zm-6.23 1.05c0-10.08-3.57-16.1-9.73-16.1s-9.52 4.2-9.52 13.79c0 9.52 3.5 16.24 9.8 16.24 6.02 0 9.45-4.83 9.45-13.93zm17.03 10.01c0 3.36-.98 3.36-2.03 3.36-.63 0-.84.56-.84.91 0 1.4 1.54 1.75 2.66 1.75h6.23c1.4 0 2.66-.35 2.66-1.75 0-.35-.14-.91-.98-.91-.91 0-1.89 0-1.89-3.36v-41.3c0-1.4 0-3.29-1.61-3.29h-4.41c-1.12 0-2.66.35-2.66 1.68 0 .49.21.98.91.98 1.26 0 1.96.35 1.96 3.36v38.57zm48.11-27.23c0 2.31-1.68 2.17-4.9 2.8l-1.4.28c1.61 1.82 2.45 4.76 2.45 7.77 0 7.84-6.51 12.53-13.37 12.53h-1.12c-2.66 0-6.93 1.4-6.93 3.85s3.5 2.52 10.92 2.66c8.96.21 14.21 1.54 14.21 9.17 0 7.77-8.82 12.81-17.5 12.81-3.43 0-15.26-1.19-15.26-10.29 0-3.71 2.94-6.79 5.18-8.12-1.19-.63-2.73-1.89-2.73-4.41 0-4.34 5.88-6.23 7.42-6.58-4.97-1.89-7.77-6.3-7.77-11.76 0-8.12 6.51-12.6 13.37-12.6 5.25 0 7 1.05 9.24 2.94 1.54-.7 4.27-3.22 5.95-3.22.7 0 2.24 0 2.24 2.17zm-10.22 11.2c0-6.65-1.96-10.08-7.21-10.08-5.18 0-7 4.76-7 9.73 0 4.97 1.75 9.52 7 9.52 5.18 0 7.21-2.8 7.21-9.17zm5.25 29.33c0-4.9-5.74-4.55-10.5-4.83-2.1-.14-7.91-.35-10.29-1.33-.7.56-2.17 2.03-2.17 6.37 0 4.9 3.92 7.91 11.55 7.91 6.93 0 11.41-3.15 11.41-8.12zm43.49-8.89c0-.63-.07-1.05-1.33-1.05-.77 0-1.54-.63-1.54-2.8v-25.13c0-1.68-.07-3.43-1.54-3.43h-4.48c-1.12 0-2.73.35-2.73 1.68 0 .35.14.98.98.98 1.33 0 1.96.7 1.96 3.5v13.72c0 4.13-3.99 10.43-8.96 10.43-5.46 0-5.46-4.2-5.46-9.59v-17.29c0-1.89 0-3.43-1.47-3.43h-4.55c-.98 0-2.66.35-2.66 1.68 0 .49.28.98 1.05.98.84 0 1.82.07 1.82 3.5v17.57c0 6.93 2.38 10.99 8.12 10.99 3.92 0 8.12-1.4 12.11-7.91 0 1.47-.14 3.01-.14 4.27 0 1.68.28 2.94 1.54 2.94h4.55c1.19 0 2.73-.21 2.73-1.61zm19.41-.14c0-.35-.21-.91-1.05-.91-.91 0-1.82 0-1.82-3.36v-21.63c0-.7.07-2.24.07-3.29 0-1.47-.28-3.08-1.68-3.08h-4.48c-1.05 0-2.59.35-2.59 1.68 0 .49.14.91.91.91.91 0 1.96.91 1.96 3.5v21.91c0 3.36-1.05 3.36-1.96 3.36-.77 0-.91.56-.91.91 0 1.4 1.54 1.75 2.59 1.75h6.3c1.4 0 2.66-.35 2.66-1.75zm-8.96-36.96l8.12-4.55c2.03-1.12 2.24-2.66 2.24-3.78 0-1.68-1.75-2.66-3.36-2.66-1.26 0-2.1.35-3.36 2.17l-5.11 7.35 1.47 1.47zm25.71 7.91c0-2.1-.21-3.22-1.61-3.22h-4.55c-1.05 0-2.59.35-2.59 1.68 0 .49.21.98.91.98 1.12 0 1.96.14 1.96 3.43v21.91c0 3.36-.98 3.36-1.96 3.36-.7 0-.91.56-.91.91 0 1.4 1.54 1.75 2.59 1.75h6.37c1.4 0 2.59-.35 2.59-1.75 0-.35-.21-.91-.98-.91-.98 0-1.89 0-1.89-3.36v-11.83c0-6.58 3.71-12.81 9.52-12.81 5.46 0 5.6 4.9 5.6 9.24v15.4c0 3.36-.98 3.36-1.96 3.36-.7 0-.91.56-.91.91 0 1.4 1.61 1.75 2.59 1.75h6.37c1.4 0 2.59-.35 2.59-1.75 0-.35-.21-.91-.98-.91-.98 0-1.89 0-1.89-3.36v-18.41c0-7.7-2.31-10.71-8.89-10.71-4.13 0-9.24 3.15-12.04 8.12.07-1.12.07-2.17.07-3.78z"/><path d="M136.586 60.9a17.898 17.898 0 0 0-9.502-15.828c-7.804-4.157-17.64-1.922-22.884 5.2l-9.318 12.667a3.624 3.624 0 0 1-3.117 1.504 3.64 3.64 0 0 1-2.99-1.73L66.566 27.257C57.184 12.284 40.044 3.643 22.5 4.894c-.61.044-2.917.368-2.917.368A10.243 10.243 0 0 0 10.63 0c-.804 0-1.614.096-2.423.288C3.19 1.506-.157 6.287.42 11.368l22.908 225.293A3.716 3.716 0 0 0 27.025 240h68.75a3.715 3.715 0 1 0 2.636-6.336l-12.887-12.945a3.717 3.717 0 0 0-2.635-1.095h-8.552L135.3 67.553a17.853 17.853 0 0 0 1.286-6.654zm-8.188 3.893L65.585 221.477a3.72 3.72 0 0 0-.266 1.383v.48a3.716 3.716 0 0 0 3.717 3.715h12.308l5.488 5.514H30.385L7.81 10.575a2.831 2.831 0 0 1 2.134-3.062 2.846 2.846 0 0 1 3.494 2.435l4.37 39.162.011.109L37.173 222.6a3.714 3.714 0 0 0 1.592 2.836 3.724 3.724 0 0 0 5.469-1.433l81.33-156.363a7.78 7.78 0 0 0 .413-6.187 7.789 7.789 0 0 0-4.256-4.515 7.672 7.672 0 0 0-3.842-.577 7.7 7.7 0 0 0-5.79 3.609l-8.684 13.935a17.375 17.375 0 0 1-14.684 8.222h-.138A17.375 17.375 0 0 1 73.91 74.13L50.932 38.495a17.942 17.942 0 0 0-15.134-8.251h-.019c-.662 0-1.284.033-1.88.1a17.916 17.916 0 0 0-10.196 4.543l-2.497-22.372.406-.08c15.313-1.644 30.473 5.71 38.653 18.765l22.209 35.454a11.132 11.132 0 0 0 18.4.686l9.316-12.666c3.07-4.17 8.83-5.48 13.399-3.045a10.481 10.481 0 0 1 4.809 13.164zm-56.196 89.33l-5.673 10.906L54.38 57.557l8.372 12.985 9.45 83.582zm-.57-71.218a24.658 24.658 0 0 0 7.45 4.777l4.943 43.712-5.677 10.914-6.716-59.403zm-11.248 93.94l-5.673 10.904L37.765 37.86c2.823.53 5.324 2.19 6.919 4.662l.622.966 15.078 133.357zm-11.819 22.721l-5.337 10.26L25.23 48.584l-.003-.324a10.539 10.539 0 0 1 5.202-9.117l18.136 160.424zm38.203-110.08c.665.047 1.334.078 2.01.072a25.115 25.115 0 0 0 4.846-.51l2.219 19.624-5.673 10.906-3.402-30.093zm14.035-3.11a24.855 24.855 0 0 0 8.914-8.541l8.683-13.936c.067-.107.166-.138.272-.149a.243.243 0 0 1 .126.02c.034.015.134.058.182.192a.31.31 0 0 1-.015.257l-16.977 32.638-1.185-10.48z" fill-rule="nonzero"/></g></svg>